<?xml version="1.0" encoding="UTF-8"?>
<svg version="1.1" viewBox="0 0 2048 2048" width="192" height="192" xmlns="http://www.w3.org/2000/svg">
<path transform="translate(1767,225)" d="m0 0 5 2 9 10 5 7 12 12 8 6 4 1-1-9-1-5h2l3 3 8 7 9 10 16 11 39 26 13 10 10 9 4 6v6l-5 7-5 5 5 3 5 1 11-5 8 1 3 3 1 5-3 11-1 17v21l3 9 13 9 4 9 10 31 3 9 1 1 8-1 4-4 5 1 4 6 4 11 9 14 6 10 5 11 5 16 5 15 5 6 12 7 6 7 5 3v120l-9 7-8 7-4-2-3-3v-2h-6l-1 4v5l-3 1-1 6-20 15 3 9 5 6 1 11-3 9-9 11-8 6-4 2-2-4-8-4-1 1-1 7-4 1-2 7-6 3-16 10-19 9h-5l-13 9-14 9-7 8-9 6-16 9-16 10-23 15-30 20-25 15-12 7-16 8-9 2h-6l-8 4-6 8-15 9-8 4-24 24-6 7-5 4-2 2-2-9-2-5-7-2-6 5-4 8-6 13-5 1-7-4-6 1-9 6-13 7-8 9-6 7-10 8-8 6-7 6-7 5-6 1-4-2-5 3-4 3-11 4-12 1-4 3 1 7-4 1 5 5 2 6-4 9-12 7-4 2 2-5 1-3-1-9 2-3-5-1-8 7-3 4-5 3-4 2 1-3h-10l-17 6-18 5-25 12-15 10-14 10-9 4-12 2-24 1-36 4-25 5-4 2-3 12-5 6-19 7-31 11-2 5-6 6-5 3-21 5-13 4-15 8-5 1-1 5 24-4 3-1 10-1 19-3 14-4 10-5 19-11 16-5 5-1 11 2h22l19-2h14l-2-6 7-10 8-7 23-12 4-2 2-4 7-8 24-13 26-10 11-3h11l4 1 15-6 19-4 8-3h4l1 3h14l10-6 7-7 3-6 7-6h4v-2l5 1-1 7-2 4 4 2 4-2 4-6h2l2-7 3-2 5 1 2 3 18-8 14-9 10-7 18-10 9-7h2l2-4 9-6 10-8 15-8 23-8h5l5 7 9 2 7-1 9-4 14-9 2-3h2l1-3h2l2-4 3-3 1-4-4-2-8-3 1-4 6-7 18-6h6l13-5 16-11 8-7 13-10 5-1 2 1-1 5-12 13-4 4-4 8-7 5 5 5 5 3 2 3 6-3-2 6-5 6-10 6-3 2-10 1-1-5v-7l-11 3-12 10-13 26-3 13 13-3 11-8 10-6 16-8 22-14 7-5 6-8 15-5 10-6 4-4 1-13 5-10 3-10 3-2 9-1 6-4 4-10 4-2 6 3 3 7 1 9 10-7 13-10 12-7 11-8 12-9 14-11 22-18 12-10 11-9 16-13 14-12 8-7h1v373l-41 14-27 12-28 14-23 13-28 15-23 12-21 10-27 11-23 8-14 9-5 5-5 8-3 5-2 1h-7l-15-9-4 1v7l1 7-8 4-29 9-58 14-14 5-6 4-7 1-5 4-4-2-5-5v-2h-2l-2 5-5 5-6 4-11 4-7 6-4-2-3-2-1 4-5-1-3-3-6-1v2l-4-1-1 4h-6l-4-2-5 2-4-1-4-2-4-8-3-3-6-1-1 16-3 4-10-1-8 3-7 1-10 7-11 5-34 7-25 5-26 4-11 1h-16l-13 1 1 11-1 7-4 2v-2l-17 3-7 3-4-1-9-9-5-2-13 8-5-1v3h-4l-1 5-3 2-2 5h-3l-2-5v-5l3-1-4-8-3 1-7 9-4 2-1 2-3-2h-4l-1-6 1-2-6-2h-8l-3 3-1 14-4 1h-3l-5-1h-15l-1 1-16 1-2 1-8-2-6 1-13-1-8-1-5 1-10-1-1 1-11-1h-9l-7-1h-23l-20-1h-27l-4 1-11-7-5-3h-6l-4-1-2 3-6-2-11-3-2-2-1-8 5-5-1-3-4-2h-12l-1 4-4 5-1 4 4 7-1 4-8 2-10 5-10 10-7 3-7 2-8-4v4l-7-2-2 1-27-8-18-4-13-3-10 1-2-1-35-3-10-3-10-2-12-3-9-5-7-1-10-5-5-5h-6l-5 1-4 2-11 5-5-1h-4l-3 2-2-4-9-1-9-2-6-2-7-6h-9l-6 3-3 2-10-2-1 2-6-2-10-2-6-4-8-4-8-2h-7l-4-3-8-4-2-5-3-1-3-8-17-1-6-3-7 1-8-2h-7l-16-7-3-4-2-9-4-1-16 1-13-2-6-2-9-1-17-4-5-2-5-1-13-10-10-10-8-7h-7l-4 6-11-1-6-4-17-4-10-1 7 16 12 19 13 15 9 10 8 7 14 12 20 15 10 7 14 10 17 12 13 10 10 8 10 9 11 7 9 5 4 1 6-3 10 1 3 2 4 10v6l4 4 7-2 4-6 6 2 9 7 17 11 15 12 22 13 10 5 14 5 5 5 1 7h6l3 2v-3l7 1 6 2 14 4 8 7 12 9 7 5 3 5-1 9v9l5-2 6-5 3-4 10 2 10 5 5-1 1 3 8-2 5-1 72 24 12 5 16 8 5 1 3-1 1 2 3-1 4-12 1-1 11 1 10 3 6 4 6 9 8 3 8-1 7-3 3-7 4 1 8 4v3l-4-1-5 6 1 8 7-3 3-3 2-4 4 1 5-4h2v12l-3-2 2 4v3h3l4 4h6l1-9 1-3v-5l64 16 39 9 43 9 4 1h19l8 6 11 4 12 3 9 2 2 3-2 16 5 3 8-1 3-3 1-3v-9l-3-8v-3h11l11-7 7-9 6-4h13l20 4 19 5 12 2 19-1 5 1 14-1h16l23 4 13 2 10 3 3 2v2h9l7-6 10-5 8-3 9 1 3-2 9 1 6 4v2h2v-2l11-1 4-5 9-4 5-2h9l10 4 6-1 9-5h7l9 5 3 3v2l3 1h7l7-5 13-5 8-2 10-4 8 1 5 2 8 6 8-7 25-12 17-6 8-2h14l7 2 18 2v-7l3-2 3-5 16-5 20-14 7-6 4-2 6 1 8 3 2 4h6l2-10 1-3h6l6 7 5 5 30 20 17 10 14 8 18 11 7 6-1 3-3 1h-36l-5 2-3 11-1 4 4 11-7 8-5 5-7 13-3 1-6-10h-9l-3 3-1 5-7 5-4-1-3 2-2 8h2l1 6h-10l-6-1-11 4-9 5-5 7 1 9-3 5-10 7-16 11-5 4-8 13-5 6-8 6-11 7-9 7-5-1-8-9-2-1 1 7-5 8-2 2-4-1-2-2-3 5-4 4 4 8 1 6v12l-4 7-5 5-6 3-9-7-4 1-7 6-8 5-18 6-4 2-2 3-5-2-4-3h-8v2l-7 1-1 2h-2v2l-8 3-4 3-12 3-55 18-33 10-14 4h-4l-1 1h-9l-4-5h-6l-13 10h-7l-12 4-14 10-12 10-3-3-4-11-8-2-5 3-7 14-3 1-8-7-6-2-9 1-8 4-9 8-12 4-6 4-7 4-8 1-6-2h-22l-4-1-7 3-15 4-5 5-2 3-5-1-5-3-9-2h-14l-9-2-16 2-27 6-14 1-4 1-10-3-17-9-10-3-10-2-19-7h-3l-2 4-3 5-3 3-9 2-6-1-5 1-1-1-4 2-9-2-10-1-3 1-2 7-6 2-16-4h-8l-17-3h-7l-9-3-7-2-9-7-6-5-15-5-10-4-13-7-7-7v-2l-5-1-10-5-7-2h-6l-5 5-5-9-2-1 2 4-5-2-2-4 3 1-6-8-7-3-8-1 11 4 2 3-5 4-2-2-8-5-5-7-12-5-26-8-24-10-13-4-17-4-10-3-14-9-5-5v-2l-6-2-6-4-1-5 2-2v-8l1-1-1-7-5-4-8-6-14-7-14-5-5-2-2 11-1 6-6-3-9-5-5-5-6-9-11-12-3-3-4-2-9-5-2-6-4-1v-2h-2v3l-5-2-6-3-2-5 2-7 2-2 10 7 4 3 6 1v3l2-1 11 1 6 3 1-9v-11l6 1 10 5 6 9-2 5-4 2v2l3 1 3 5 1 4 14 5 16 5 5-1 7-4 10-1-4-6v-2l-4-2-19-13-15-12-22-15-9-5-9-9-2-5-7-6h-10l-19 2-1-2-2 2-6-5-7-11v-2l-12-1 4 4 5 19-4 2-1 3-4-2-8-10-3-6v-4l9-1-2-6h2l2-7 7-7 8 1-9-10-9-9-9-11-15-15-7-8-13-14-7-8-12-14-13-16-15-20-12-14-8-12-10-14-19-29-11-18-14-24-14-26-16-32-8-17-15-34-12-30-6-14-4-17-8-24v-5l7 6 5 6 3 5 2 2 6-1 2-5 2-7h2l1-6 1-3-3-11-4-12-2-5 1-2v-9l-1-1 1-9 3-2-1 5 3-3 4-9v-5l12-9 6-5 10-5h10l11 1 5 4 4 7h7l9-9 8 7 7 8 5 3 11 4 2 1v-2l5 2 2 4 3 3v4l7 1 4-2v-3l-4 1-3-3-4-10-6-16-2-3 3-2 5 1 10 7 7 10 2 1v2l-2 2 3 9-4 2 7 3v2l9-2 8 2 6 4 4 8 6 4 5 4 5 1 3 3 10 4 5 3h7l2-6 3-2h13l9 3 24 5 6 1 9-5h20l13 4 5-1 7 2v4l-2 1-1 4 7-1v2h2v2h3l2-4h3l1-3 6 1 5 3 6 1 2-2 4-15 7-5 3-6 5-2 9 2 4 1 4 8v3l12-2h11l7 2h14l5 3 4 5 9 1 13 5h3l4-4 2-1h7l6 2 22 2 26 1 2 1h18l8-2 9 1h37l16 8 7-2 4-5 8-1 5 1 12-1 5-4 14-7 5-3h5l3 5 1 2v7h2v3l5-2 5-3 4-8 3-2h11l12 4 9-2 13-7 10-8 11-5 11-6h8l4 2 8-1 6-2h15l-2-4-1-12-6-2-7 1-6 2-5-3-9-1h-9l-6 1-9 1-4 2-5-1h-2v-2l-16 4h-11l-3-5-3-2h-7l-9 2h-2v2h-2v-2l-6 2h-6l-8 6-5 5-7-2-1 4-7-1-1-5 2-6h-5l-3 1-8-1h-7l-1 4h-2l-1 3h3l-1 4-8-2h-3v-3l4-4-8 2-4-1-16 2-20 4-6 1v-2l-5 1v2h-8l-3 2-9-1-2-1h-10l-13 3-16 3-12 2-18 2h-19l-11-1-5-3-8-2h-9l-5-5-2-5 1-6-4-3-15-1-5-1-1-2-12-1-31 5-6 2 4 6v2l14 3-3 3-6 1-1-3h-3l-1 3h-5l-1-3-7 3-11-2-7-2-4-3-5-2-6-1-5-3-9-3h-12l-13-3h-19l-16-2-3-5-4-4 2-2 9 3 1-1h19l15-2h11l3-3-3-6-2-3 1-4 1-5 4-3 20 8 6 7-2 6 3 2h13l1 1 15 1 19-5 18-9-6-1 3-2 8-1 3-1-1-3-9-1-9-3-8-1-11 1-2 4-8-1-7-3 1-2h4v-2l-17-1-10-2-12-1-7-2-9-3h-8l-2 4v1h-5l-3-3v3l-5-1-2-5-7-4h-8l-4-2-12-1-10 5-7 2-7 3-7 5-4-1-3-2-1 3-9-6-3-3-9-1-10 2h-5l-3-4 1-5 4-7 1-9-4-3-1 2h-4v-2l-9 4-4-1-14-9-14-5-36-12-35-13-24-10-26-11-22-10-19-10-26-14-23-13-22-13-27-18-22-15-32-24-15-13-10-9-11-9-14-12-10-9-10-7v-103l4-2 8 1 9 6 10 9 11 8 18 12 16 9 23 11 25 9 24 8 36 10 62 15 44 12 11 4h8l13-3 8-4 4-3 5 1 10 8 6 8h7l1 4h5l3-14 17 2 39 6 21 2 37 1h11l8-3 5-1h13l1 5h2l1 5 9-7 2-2 10-1 3-1 11-1 7-5h8l13 4 17 1h9l12 2 3 5 2 8 4 2 5 2 2-7h2l-3-9 1-4h2l1 4 11-4 9-1 13-3 16-6 11-4 71-14 23-5 13-2h23l8-4 10-4-5-15 1-1h12l5-2 4-2 12-5h5l9 7 14-1 11-9 5-2 2-5 6-9 3-3 8 1-1 4h-2l-2 6-1 7 1 1 7-1 4-8 6-5 3-6 4-2 3 7 4 6 4 1 9-3 5-2-1-4-4-8-2-2 9-4 32-10 79-27 37-14 26-11 20-9 23-11 14 1 12-6 16-7 8-1 1 2 2 12 7 2 7-3 4-7 3-11-13-5-2-2 10-9 8-7 2-6v-7l6-11 13-11 15-8 33-15 16-8 14-9 17-12 15-12 19-12 23-13 24-13 6-2h8l2-4 3-5 3-7 12-16 12-12 16-11 14-7 4-9 6-12 9-10 8-7 9-6 15-15 7-9 6-2h10l5-3 9-12 6-9 5-10 7-11 8-10 8-7 11-2 4-4 4-12 9-19 10-19 13-27 8-17 11-19 9-13 5-7zm231 470-12 8-5 6v6l6 3 2 2 11-13 4-5 1-4-3-3zm-101 81-1 2 4 6 5 1 1-1v-5l-4-1v-2zm-268 181-5 3-2 5 2 4 7-1 3-2 1-5-1-4zm31 90-8 3-4 3-3 1v2l-3 1-4 11-7 10-5 8-8 7-6 4-9 1-5-3-2-5-4 2-6 7-7 8-9 11-9 13-2 4 1 4 10-3 9-6 8-6 7-11 4-2-1 7 1 2 5-1 9-4 6-4 16-8 9-7 5-5 7-8 1 2 4-1 15-8 7-5-4-9-3-1-3-10-2-3h-5-2zm-277 27-16 5-19 8-7 8-10 15-4 9 5-1 8-4 9-4 5-1 1 2v-2l3 1 6-4 9-12 10-15 1-5zm135 18-1 2h2zm-2 2m-3 3m-63 3m141 21 4 1zm-394 11-7 3-1 2-11 3-26 4-3 3 3 3 11 3 29 3 6 2h9l3-2-1-13-1-6-4-5zm-740 24 2 3h2v-2zm4 3m588 6-8 3 1 4 1 1h6l7-4-2-3zm407 12-6 9 2 2 8-4 1-4-2-3zm-563 9-11 2-8 6-9 2-4-4-3-4h-12l-3 1-43 3-6 2v-2l-8-1-1 2h3l1 4-9 4h-7l-4-1-4-2-9-4h-7l-5 2-5 6-3 6 1 10 2 5 3 3 8 3 15 1 12-3 12-6 8-5 11-5 14-3h19l4 6 3 1h11l17-6 13-6 17-11 1-4-1-2zm441 17-6 2-2 2 1 5 3 6 2 9 5 2 6-3v-2h6l1-4 12-1 6 1 7-3v-7l-3-3h-12l-10 3-2-3-4-2h-5zm-229 29-2 2 6-1zm-192 1m317 2-10 2-11 1-5 3-10 13-8 13-1 4 10-1 16-5 6-4 9-11 7-11 2-4zm-285 3m-541 1m224 1-2 2h6v-2zm221 1m335 30m-214 31-9 5 2 2 6 2 5-1 4-2 1-3-2-3zm-658 1-1 2 6 13h1v-8l-2-6zm296-1-5 3 3 4h2l1 3h8l4 4h3l-2-5-4-5zm-290 16 1 3zm1 3 1 7 4 10 3 2 2-1-1-6-7-10zm927 130m565 311-1 2 3-1zm-1271 46m1128 26-6 3-2 2-1 6 2 4h7l10-7 1-3-6-5zm3 18 1 3v-3zm-980 9-6 3-4 5-4 8-1 1v6l7 9 11 7 4 1 12-2 2-1 10-1 5-1 17 5 4 4 4 8 6 4 7 1 4 1 18-1 12-3 4-4-5-5-15-5-16-8-21-10-19-8-7-1-1 8-1-7-10-3-6-7-5-3zm209 81-2 4 3 2h8l1-2-4-4zm458 12-3 4 1 10h4v-7h2l1-4-3-3zm-379 8 1 5 8 6 13 10 8 8 6 2 4-8 3-12-1-4-1-2-3-1h-11l-13-2-5-2zm-173 5m331 10-12 6-8 8-6 8 1 3h22l6-3 13-10 5-6-1-4-1-1-9-1z" fill="#9AC868"/>
<path transform="translate(1767,225)" d="m0 0 5 2 9 10 5 7 12 12 8 6 4 1-1-9-1-5h2l3 3 8 7 9 10 16 11 39 26 13 10 10 9 4 6v6l-5 7-5 5 5 3 5 1 11-5 8 1 3 3 1 5-3 11-1 17v21l3 9 13 9 4 9 10 31 3 9 1 1 8-1 4-4 5 1 4 6 4 11 9 14 6 10 5 11 5 16 5 15 5 6 12 7 6 7 5 3v120l-9 7-8 7-4-2-3-3v-2h-6l-1 4v5l-3 1-1 6-20 15 3 9 5 6 1 11-3 9-9 11-8 6-4 2-2-4-8-4-1 1-1 7-4 1-2 7-6 3-16 10-19 9h-5l-13 9-14 9-7 8-9 6-16 9-16 10-23 15-30 20-25 15-12 7-16 8-9 2h-6l-8 4-6 8-15 9-8 4-24 24-6 7-5 4-2 2-2-9-2-5-7-2-6 5-4 8-6 13-5 1-7-4-6 1-9 6-13 7-8 9-6 7-10 8-8 6-7 6-7 5-6 1-4-2-5 3-4 3-11 4-12 1-4 3 1 7-4 1 5 5 2 6-4 9-12 7-4 2 2-5 1-3-1-9 2-3-5-1-8 7-3 4-5 3-4 2 1-3h-10l-17 6-18 5-25 12-15 10-14 10-9 4-12 2-24 1-36 4-25 5-4 2-3 12-5 6-19 7-31 11-2 5-6 6-5 3-21 5-13 4-11 6-17 4-5 2v-2l-6-2-7 1-6 2-5-3-9-1h-9l-6 1-9 1-4 2-5-1h-2v-2l-16 4h-11l-3-5-3-2h-7l-9 2h-2v2h-2v-2l-6 2h-6l-8 6-5 5-7-2-1 4-7-1-1-5 2-6h-5l-3 1-8-1h-7l-1 4h-2l-1 3h3l-1 4-8-2h-3v-3l4-4-8 2-4-1-16 2-20 4-6 1v-2l-5 1v2h-8l-3 2-9-1-2-1h-10l-13 3-16 3-12 2-18 2h-19l-11-1-5-3-8-2h-9l-5-5-2-5 1-6-4-3-15-1-5-1-1-2-12-1-31 5-6 2 4 6v2l14 3-3 3-6 1-1-3h-3l-1 3h-5l-1-3-7 3-11-2-7-2-4-3-5-2-6-1-5-3-9-3h-12l-13-3h-19l-16-2-3-5-4-4 2-2 9 3 1-1h19l15-2h11l3-3-3-6-2-3 1-4 1-5 4-3 20 8 6 7-2 6 3 2h13l1 1 15 1 19-5 18-9-6-1 3-2 8-1 3-1-1-3-9-1-9-3-8-1-11 1-2 4-8-1-7-3 1-2h4v-2l-17-1-10-2-12-1-7-2-9-3h-8l-2 4v1h-5l-3-3v3l-5-1-2-5-7-4h-8l-4-2-12-1-10 5-7 2-7 3-7 5-4-1-3-2-1 3-9-6-3-3-9-1-10 2h-5l-3-4 1-5 4-7 1-9-4-3-1 2h-4v-2l-9 4-4-1-14-9-14-5-36-12-35-13-24-10-26-11-22-10-19-10-26-14-23-13-22-13-27-18-22-15-32-24-15-13-10-9-11-9-14-12-10-9-10-7v-103l4-2 8 1 9 6 10 9 11 8 18 12 16 9 23 11 25 9 24 8 36 10 62 15 44 12 11 4h8l13-3 8-4 4-3 5 1 10 8 6 8h7l1 4h5l3-14 17 2 39 6 21 2 37 1h11l8-3 5-1h13l1 5h2l1 5 9-7 2-2 10-1 3-1 11-1 7-5h8l13 4 17 1h9l12 2 3 5 2 8 4 2 5 2 2-7h2l-3-9 1-4h2l1 4 11-4 9-1 13-3 16-6 11-4 71-14 23-5 13-2h23l8-4 10-4-5-15 1-1h12l5-2 4-2 12-5h5l9 7 14-1 11-9 5-2 2-5 6-9 3-3 8 1-1 4h-2l-2 6-1 7 1 1 7-1 4-8 6-5 3-6 4-2 3 7 4 6 4 1 9-3 5-2-1-4-4-8-2-2 9-4 32-10 79-27 37-14 26-11 20-9 23-11 14 1 12-6 16-7 8-1 1 2 2 12 7 2 7-3 4-7 3-11-13-5-2-2 10-9 8-7 2-6v-7l6-11 13-11 15-8 33-15 16-8 14-9 17-12 15-12 19-12 23-13 24-13 6-2h8l2-4 3-5 3-7 12-16 12-12 16-11 14-7 4-9 6-12 9-10 8-7 9-6 15-15 7-9 6-2h10l5-3 9-12 6-9 5-10 7-11 8-10 8-7 11-2 4-4 4-12 9-19 10-19 13-27 8-17 11-19 9-13 5-7zm231 470-12 8-5 6v6l6 3 2 2 11-13 4-5 1-4-3-3zm-101 81-1 2 4 6 5 1 1-1v-5l-4-1v-2zm-268 181-5 3-2 5 2 4 7-1 3-2 1-5-1-4zm-246 117-16 5-19 8-7 8-10 15-4 9 5-1 8-4 9-4 5-1 1 2v-2l3 1 6-4 9-12 10-15 1-5zm67 26m-253 32-7 3-1 2-11 3-26 4-3 3 3 3 11 3 29 3 6 2h9l3-2-1-13-1-6-4-5zm-740 24 2 3h2v-2zm4 3m588 6-8 3 1 4 1 1h6l7-4-2-3zm-156 21-11 2-8 6-9 2-4-4-3-4h-12l-3 1-43 3-6 2v-2l-8-1-1 2h3l1 4-9 4h-7l-4-1-4-2-9-4h-7l-5 2-5 6-3 6 1 10 2 5 3 3 8 3 15 1 12-3 12-6 8-5 11-5 14-3h19l4 6 3 1h11l17-6 13-6 17-11 1-4-1-2zm20 47m32 5m-317 2-2 2h6v-2z" fill="#13B2EC"/>
<path transform="translate(1179)" d="m0 0h32l2 1v2l5 2 10 5 9 11 3 5 12 4h15l17-3h4l-3-7 2-3-1-5 2-1h11l7 1 5 4 14 7 3 2 18 4 9 4v4l3 1v2l-9 2-15 2 2 10 1 6-7 3-9-2-6-4-3-4-2-5v-3l1-3-4-1h-16l-13 4-10 8-7 5 1 5 11 4h15l9 2 3 2 40 6 6-1h5l3 3 4 2 15 3 5-2 3-1 1-3 11-6 4-3 7 1 4 4 8 3 4-1 3-5-1-3-9-6-2-2v-7l4-3h5l7 4 2 5 1 7 1 4-3 1 4 4-2 9-4 8-1 4-1 2 13 1 10 3 7 5 17 5 36 13 27 11 27 12 30 14 28 15 19 10 25 15 12 7 2 4-4 8-10 11-14 19-8 10-10 14-8 10-26 34-11 14-9 10-7 8-13 15-8 10-6 6-4-1-10-7-9-5-4-1-2 25-2 3h-2v2h-7l-10-5-4-1h-11l-9-5-7-6-5-10-6 1-3 3-3 5-2 2-7-1-10-8-17-12-14-8-11-5-30-10-33-7-55-9-20-4-14-4h-7l-11 3-8 5-5 6-3-1-6-8-4-6v-2h-7l-2 1-4 13-1 1h-6l-3-3-7 1-9-2-7 1-17-4h-6l-6-1-3 1-8-2-9 1-12 6-1-3-4 1-2 3-4-1-2-5-7-1-11 5h-2l-2 4-5 3-9-1-1 4-9-4-6-3-5 2-5 1-2-1v-2l-3 2-5-1-5-5-5-9-3-1-2 16-8 5-7-1-7 3-12 9-15 6-15 5-28 11-25 8-13 4-6 5 1 6 1 2v9l-3 3-13 4-4 3-4-2-5-3-5 1-7 3-6 9-15 2-5 3-2 3v6l2 2h-2v2l-5-1v-2l-6-2v-2h-9l1 6 1 3h2l2 5v5l-9 7-10 6-20 13-17 12-18 13-12 9-11 9-15 14-16 14-18 10-15 15-8-8-3-5-6-1-3 3-1 2v7l6 8 6 4 2 3-1 12 2 10 3 6v6l-6 11-14 15-15 15-8 11-14 27-9 16-13 16-10 14-5 4-5 3v6l3 5v13l-11 27-5 9-5 7v7l3 9-1 11-5 21-5 12-3 5-7 1-17-1-4 2-5-2-7-2-8-7-4-3-3-1h-17l-4 1h-12l-12 2h-11l-4 1-1-3-7-1-7-6-5-5-7 1-7 4h-10l-5-1h-7l-5-1-8 3-12-1-7-1-11-2-11-4-17-9-16-9-5-2h-7l-8 8-6 3-12-6-3-6-1-5v-15l-1-15v-20l4-11 4-5 9-4 9-3 3-2-1-5-6-4-8-4-3-4 1-5 7-6 12-6 12-9 14-8 6-4 1-4v-10l12-14 10-9 5-6-2-2-10-5-2-2 1-5 6-7 4-11 9-16 14-14 4-7-1-7-2-4-4-2 1-5 6-8 6-10 7-10 4-11-2-10 4-8 7-13 3-1 2-5 4-4 10-3 3-2 3-7 6-10v-6l-8-9-6-9v-8l2-7 6-5 9-1 14-15 12-13 7-6 3-2 7-1 9-7 8-14 11-11 10-8 15-13 13-13 8-7 13-13 10-8 14-9 16-7 5-4 7-8 12-13 8-16 5-7 4 2 11 6 5 4 3-23 3-3 6 1 3 1 7-3 9-7 6-10 10-16 11-12 5-3 10-2 8-4 12-5 2-5-4-2-5-10-1-3v-7l2-2h9l3 3 2 4 1 8 5-3 1-5 1-2 6 1 19-8 18-6 8-6 15-12 19-13 11-4 21 1 16-3 16-1 8-3 3-8 3-7 8-7 18-8 11-8 7-8 11-4 25-9 7-2 19-2 12 4 4 1 6-3h18l15-1 8 4 2 2h16l6-3 9-6 8-4 3 1 1 6v4l11-2 1-2 8-1 7-1 6 4 3 1 9-2 5-2 21-4 7-1 3 1h9l23-5zm7 23-8 4-16 12-13 5-12 1h-3l-3-5-5-5-7 1-15 8-14 9-7 8v3h12l10-3 10-6 5 1 3 6 3 1 20-1 18-1 5-3 2-4 4-1h7l8 6h9l6-5 2-5 2-8-1-5-4-8-6-4-5-1zm-203 49-5 3 1 4 7-1 3-2-1-3zm-114 6-4 4 1 13 3 8 3 1h8l3-3v-2l15-1 11-2 1-4-5-4-6-1h-9l-9-4-10-5zm-92 37-12 3-6 4-5 6-5 7-3 10-2 5 1 4 8-1 10-5 7-5 5-8 6-20zm-201 128-3 5 1 8 2 4 4 1 4-4-3-9zm420 80v2h2v-2zm-639 154-6 10-2 5v4h7l7-6 2-4v-5l-6-4z" fill="#13B2EC"/>
<path transform="translate(2047,822)" d="m0 0h1v373l-41 14-27 12-28 14-23 13-28 15-23 12-21 10-27 11-23 8-14 9-5 5-5 8-3 5-2 1h-7l-15-9-4 1v7l1 7-8 4-29 9-58 14-14 5-6 4-7 1-5 4-4-2-5-5v-2h-2l-2 5-5 5-6 4-11 4-7 6-4-2-3-2-1 4-5-1-3-3-6-1v2l-4-1-1 4h-6l-4-2-5 2-4-1-4-2-4-8-3-3-6-1-1 16-3 4-10-1-8 3-7 1-10 7-11 5-34 7-25 5-26 4-11 1h-16l-13 1 1 11-1 7-4 2v-2l-17 3-7 3-4-1-9-9-5-2-13 8-5-1v3h-4l-1 5-3 2-2 5h-3l-2-5v-5l3-1-4-8-3 1-7 9-4 2-1 2-3-2h-4l-1-6 1-2-6-2h-8l-3 3-1 14-4 1h-3l-5-1h-15l-1 1-16 1-2 1-8-2-6 1-13-1-8-1-5 1-10-1-1 1-11-1h-9l-7-1h-23l-20-1h-27l-4 1-11-7-5-3h-6l-4-1-2 3-6-2-11-3-2-2-1-8 5-5-1-3-4-2h-12l-1 4-4 5-1 4 4 7-1 4-8 2-10 5-10 10-7 3-7 2-8-4v4l-7-2-2 1-27-8-18-4-13-3-10 1-2-1-35-3-10-3-10-2-12-3-9-5-7-1-10-5-5-5h-6l-5 1-4 2-11 5-5-1h-4l-3 2-2-4-9-1-9-2-6-2-7-6h-9l-6 3-3 2-10-2-1 2-6-2-10-2-6-4-8-4-8-2h-7l-4-3-8-4-2-5-3-1-3-8-17-1-6-3-7 1-8-2h-7l-16-7-3-4-2-9-4-1-16 1-13-2-6-2-9-1-17-4-5-2-5-1-13-10-10-10-8-7h-7l-4 6-11-1-6-4-17-4-10-1 3 9-5-2-14-10-10-8-2-2-2-13-4-1 4 9-1 3-18-13-13-8-10-4-2-12-5-14-2-5 1-2v-9l-1-1 1-9 3-2-1 5 3-3 4-9v-5l12-9 6-5 10-5h10l11 1 5 4 4 7h7l9-9 8 7 7 8 5 3 11 4 2 1v-2l5 2 2 4 3 3v4l7 1 4-2v-3l-4 1-3-3-4-10-6-16-2-3 3-2 5 1 10 7 7 10 2 1v2l-2 2 3 9-4 2 7 3v2l9-2 8 2 6 4 4 8 6 4 5 4 5 1 3 3 10 4 5 3h7l2-6 3-2h13l9 3 24 5 6 1 9-5h20l13 4 5-1 7 2v4l-2 1-1 4 7-1v2h2v2h3l2-4h3l1-3 6 1 5 3 6 1 2-2 4-15 7-5 3-6 5-2 9 2 4 1 4 8v3l12-2h11l7 2h14l5 3 4 5 9 1 13 5h3l4-4 2-1h7l6 2 22 2 26 1 2 1h18l8-2 9 1h37l16 8 7-2 4-5 8-1 5 1 12-1 5-4 14-7 5-3h5l3 5 1 2v7h2v3l5-2 5-3 4-8 3-2h11l12 4 9-2 13-7 10-8 11-5 11-6h8l4 2 8-1 6-2h15l-2-4v-10l4-2 3-2 12-2-2 2-5 1-1 5 24-4 3-1 10-1 19-3 14-4 10-5 19-11 16-5 5-1 11 2h22l19-2h14l-2-6 7-10 8-7 23-12 4-2 2-4 7-8 24-13 26-10 11-3h11l4 1 15-6 19-4 8-3h4l1 3h14l10-6 7-7 3-6 7-6h4v-2l5 1-1 7-2 4 4 2 4-2 4-6h2l2-7 3-2 5 1 2 3 18-8 14-9 10-7 18-10 9-7h2l2-4 9-6 10-8 15-8 23-8h5l5 7 9 2 7-1 9-4 14-9 2-3h2l1-3h2l2-4 3-3 1-4-4-2-8-3 1-4 6-7 18-6h6l13-5 16-11 8-7 13-10 5-1 2 1-1 5-12 13-4 4-4 8-7 5 5 5 5 3 2 3 6-3-2 6-5 6-10 6-3 2-10 1-1-5v-7l-11 3-12 10-13 26-3 13 13-3 11-8 10-6 16-8 22-14 7-5 6-8 15-5 10-6 4-4 1-13 5-10 3-10 3-2 9-1 6-4 4-10 4-2 6 3 3 7 1 9 10-7 13-10 12-7 11-8 12-9 14-11 22-18 12-10 11-9 16-13 14-12zm-387 225-8 3-4 3-3 1v2l-3 1-4 11-7 10-5 8-8 7-6 4-9 1-5-3-2-5-4 2-6 7-7 8-9 11-9 13-2 4 1 4 10-3 9-6 8-6 7-11 4-2-1 7 1 2 5-1 9-4 6-4 16-8 9-7 5-5 7-8 1 2 4-1 15-8 7-5-4-9-3-1-3-10-2-3h-5-2zm-142 45-1 2h2zm-2 2m-3 3m78 24 4 1zm-135 56-6 9 2 2 8-4 1-4-2-3zm-122 26-6 2-2 2 1 5 3 6 2 9 5 2 6-3v-2h6l1-4 12-1 6 1 7-3v-7l-3-3h-12l-10 3-2-3-4-2h-5zm-104 32-10 2-11 1-5 3-10 13-8 13-1 4 10-1 16-5 6-4 9-11 7-11 2-4zm-826 4m780 32m-214 31-9 5 2 2 6 2 5-1 4-2 1-3-2-3zm-362 0-5 3 3 4h2l1 3h8l4 4h3l-2-5-4-5z" fill="#FDB060"/>
<path transform="translate(430,1176)" d="m0 0 9 1 10 7 8 4 2 5-2 2-8-1-7 3 5 6-3 2-4-1-6-3 1 4-2 2-9 1-11-3-5-3-2-6 2-3 9 1 4 2 10 1 4 2 2-5-3-1-4-11z" fill="#1AB4EC"/>
<path transform="translate(367,1159)" d="m0 0 10 1 6 3 2 3-1 5-7 4-6 2 1 12-3 1-6-3-1-3-7-1-2-3 1-8 3-3 2-5 5-4z" fill="#16B3EC"/>
<path transform="translate(1908,865)" d="m0 0 5 5 5 8 1 2v13l-5 5-4 3h-2v-2l-4-2-1-7 1-4-1-3-3-3-1-3-2 6-5 1-2-5 5-4h3l2-4z" fill="#FEB060"/>
<path transform="translate(1470,55)" d="m0 0h13v4l5 1 1 4-2 8-6 11-3 2-5 1h-7l-3-4 1-5 5-7 3-3-1-1v-5-3z" fill="#17B3EC"/>
<path transform="translate(1688,245)" d="m0 0 1 4-6 10-4 7-6 10-11 19-7 11-3 1-5-4 2-6 9-12 10-15 7-12 8-9z" fill="#1AB4EC"/>
<path transform="translate(452,1707)" d="m0 0h6l4 5-1 5-5 5-4 1-4 7v2l5 5 1 4-5-2-15-13-5-7v-3l7 1 14-9z" fill="#9BC868"/>
<path transform="translate(254,1421)" d="m0 0 5 2 6 8 5 10 4 5 6 9 5 5v2h2l1 5-1 1h-5l-6-4-3-6-7-10-1-5-4-2-6-9-2-5v-5z" fill="#9EC768"/>
<path transform="translate(455,1743)" d="m0 0 8 1 4 4 4 6 10 9 5 5 1 2v6l-3 3-14-11-4-5-6-12-5-7z" fill="#9EC768"/>
<path transform="translate(195,1066)" d="m0 0 6 2 2-1 8 4 8 7 3 3 6 13v4l-5-1-6-5-7-8-9-10-5-4z" fill="#15B2EC"/>
<path transform="translate(1225,2019)" d="m0 0h6l1 2-1 11-5 10v6l-4-1-3-2-2-7-3-7 5-9z" fill="#9BC868"/>
<path transform="translate(291,1176)" d="m0 0 7 2 11 6 5 5 6 2-1 2h-7l-12 2-9-5-2-3v-8z" fill="#1EB4E8"/>
<path transform="translate(1717,151)" d="m0 0h6l10 8 2 3v5l-3 2-11-1-9-7 1-6z" fill="#15B2EC"/>
<path transform="translate(1924,816)" d="m0 0 5 1 5 5v4l-5 5-14 6-5 2-1-4 10-13 2-4z" fill="#F8B568"/>
<path transform="translate(1855,912)" d="m0 0 11 3 8 3 4 3v2l-8 4-7 2-10-1-1-6 3-6z" fill="#FEB060"/>
<path transform="translate(1576,128)" d="m0 0 4 1 3 4 4 7 8 7v2h2l1 6-3 4-7-6-7-3-4-11-2-5-1-4h2z" fill="#25B8ED"/>
<path transform="translate(1420,36)" d="m0 0h8l10 4 8 5 3 4v2l4 2 3 4-4-1-4-3-9-2-6-1-14-9z" fill="#1BB4EC"/>
<path transform="translate(1880,887)" d="m0 0h2l-2 4-7 6-6 7-10 5-1 1h-13v-2l7-4 4-2 1-3 10-6 4-1 2 1v-2z" fill="#FEB060"/>
<path transform="translate(388,1698)" d="m0 0 5 5 8 9 5 7 4 4-5 1-6-4h-4l-8-5-3-7z" fill="#9AC868"/>
<path transform="translate(375,1585)" d="m0 0 5 3 6 10v3l3 3 1 7-7 4-3-2-6-15v-11z" fill="#9EC768"/>
<path transform="translate(1,950)" d="m0 0 9 2 4 3 6 3 5 7 7 1 2 1-5 3-5-1-8-1-11-7-3-1-2-1v-8zm1 1m7 7 1 3 3 1-1-4z" fill="#26B8ED"/>
<path transform="translate(295,1122)" d="m0 0h8l11 4 4 5v6l-8-1-8-5-3 1-7-4 1-4z" fill="#13B2EC"/>
<path transform="translate(400,1681)" d="m0 0 5 1 3 5 7 5 9 13 4 8v2l-4-2-9-7-8-11-7-12z" fill="#9DC868"/>
<path transform="translate(1819,958)" d="m0 0 3 1v6l-5 5-6 5 1 3-4 1-5-5-1-5 8-8z" fill="#FEB060"/>
<path transform="translate(1523,45)" d="m0 0h7l6 5 1 2v8l-2 2-6-1-7-5-5-7z" fill="#15B2EC"/>
<path transform="translate(301,1156)" d="m0 0 10 2 10 5 7 8 3 3-12-2-8-4-11-7-2-4z" fill="#1AB4EC"/>
<path transform="translate(530,1193)" d="m0 0 9 1 5 5v3l-8 3-10-1-4-4v-2l-3-1v-2z" fill="#19B4EC"/>
<path transform="translate(1972,853)" d="m0 0h3l1 7-5 8-6 5-4-1-3-5 8-12z" fill="#FEB060"/>
<path transform="translate(81,1062)" d="m0 0h10l5 2 1 10-3 3-8-1-5-6-1-7z" fill="#18B3EC"/>
<path transform="translate(65,1026)" d="m0 0h5l4 5 4 3 2 7-2 2-10-1-5-3-1-7z" fill="#18B3EC"/>
<path transform="translate(1730,182)" d="m0 0h7l7 2 2 3v7l-1 3-6-1-10-6-3-4z" fill="#1AB4EC"/>
<path transform="translate(1358,25)" d="m0 0h5l1 2 5-2 3 1 3 6v6l-1 1-11-1-7-6-1-4zm6 7v3l2-1v-2z" fill="#20B6EC"/>
<path transform="translate(1511,102)" d="m0 0 14 2 4 3v5l-2 2h-12l-6-4-1-6z" fill="#1BB4EC"/>
<path transform="translate(2043,798)" d="m0 0 4 1 1 1v12h-12l-5-5 1-4 7-4z" fill="#FEB060"/>
<path transform="translate(297,1556)" d="m0 0h5l-1 4-4 8-7 1-5-2-3-4 1-4 5-2z" fill="#9CC868"/>
<path transform="translate(1359,45)" d="m0 0 1 4 4 1 2 3v6l-3 2h-11l-7-1 1-3 3 1 2-5 6-5z" fill="#19B3EC"/>
<path transform="translate(1944,842)" d="m0 0 4 1-2 4-10 7-10 5-4 1-2-1 2-4 10-8 4-3z" fill="#FEB060"/>
<path transform="translate(418,1654)" d="m0 0 4 2 10 8 3 4v3l-2 1h-7l-7-5-1-3z" fill="#9CC868"/>
<path transform="translate(676,1235)" d="m0 0 6 1 4 4-1 5-4 3-3 1h-7l-3-2 2-5z" fill="#14B2EC"/>
<path transform="translate(1502,67)" d="m0 0h7l11 4 3 4 1 5-1 1-10-1-3-3-2-4-5-2-3-1v-2z" fill="#1EB5EC"/>
<path transform="translate(202,1106)" d="m0 0 13 2 15 4v4h-5-3-9l-3-2-9-1-1-1v-5z" fill="#23B7ED"/>
<path transform="translate(179,1109)" d="m0 0 9 2 3 3v2l-5 3-4 3h-6l-3-2v-6l3-4z" fill="#1BB4EC"/>
<path transform="translate(1705,995)" d="m0 0 2 1-2 10-6 5-1 2-4-1-5-1-3-1 11-10z" fill="#FEB060"/>
<path transform="translate(540,1781)" d="m0 0 6 2 6 4 1 2 1 13-4 1-2-5-5-4-4-12z" fill="#9CC868"/>
<path transform="translate(1611,135)" d="m0 0 13 2-1 5-5 5h-7l-4-4-1-4 2-3z" fill="#21B6EC"/>
<path transform="translate(179,1074)" d="m0 0 7 2 2 2-1 5-6 4h-7l-2-2 1-5 4-5z" fill="#17B3EC"/>
<path transform="translate(2046,764)" d="m0 0h2v2h-2v2l2 1-2 5-17 9-2-1 1-4 5-4h2v-2z" fill="#FEB060"/>
<path transform="translate(618,1875)" d="m0 0h7l6 4 1 1v5l-2 2-5-1-9-6v-4z" fill="#9DC868"/>
<path transform="translate(1614,100)" d="m0 0 6 5 2 4-1 4-6 2-6-3-1-4z" fill="#16B3EC"/>
<path transform="translate(337,1614)" d="m0 0h5l2 4h2l-2 4-2 5-6 1-3-4v-6z" fill="#9EC768"/>
<path transform="translate(1254)" d="m0 0 3 1 1 2v8l-4 8h-2l1 5-3-3-1-11 3-7z" fill="#2BB9ED"/>
<path transform="translate(289,1524)" d="m0 0 6 1 3 3-1 7-5 2-6-3-1-3z" fill="#A0C768"/>
<path transform="translate(1764,187)" d="m0 0 4 1 5 7-1 4-2 2h-6l-3-5z" fill="#16B3EC"/>
<path transform="translate(353,1589)" d="m0 0h7l2 2v5l-5 2-9-1-1-4 3-3z" fill="#9AC969"/>
<path transform="translate(1586,110)" d="m0 0 9 1 5 1v2l-4 1v5l-14-4-1-4z" fill="#2FBBED"/>
<path transform="translate(228,1127)" d="m0 0 5 4 6 3 3 3v4l-9-1-4-4z" fill="#13B2EC"/>
<path transform="translate(768,1899)" d="m0 0 7 1 10 5v2l-12 1-6-5z" fill="#9BC868"/>
<path transform="translate(1672,244)" d="m0 0h2l1 8-5 4h-5l-1-1 1-7 4-3z" fill="#25B8ED"/>
<path transform="translate(1924,816)" d="m0 0 5 1 3 3-1 2-11 4-8 8-1 2-2-1 10-13 2-4z" fill="#1DB5EB"/>
<path transform="translate(2006,778)" d="m0 0 6 1 4 3v2l-7 3h-8l1-5z" fill="#FEB060"/>
<path transform="translate(795,420)" d="m0 0 5 1-2 10-3 2-9 1 2-5 5-1 2 1v-2h-2l-1-5z" fill="#20B6EC"/>
<path transform="translate(40,1030)" d="m0 0 9 2 5 6-1 4-7-2-6-8z" fill="#1AB4EC"/>
<path transform="translate(188,1303)" d="m0 0 4 2 2 3-1 5-1 1h-6l-2-1v-6z" fill="#9CC868"/>
<path transform="translate(1699,161)" d="m0 0 4 1v3l5 2v2l-6 1-7-1-1-5z" fill="#2BBAED"/>
<path transform="translate(360,1622)" d="m0 0h8l5 3-2 4-9-1-4-4z" fill="#9DC868"/>
<path transform="translate(1517,408)" d="m0 0 5 2v7l-2 5-5-1-1-4z" fill="#21B6EC"/>
<path transform="translate(370,1644)" d="m0 0h2l1 7-4 10-2-1-1-5z" fill="#A6C567"/>
<path transform="translate(270,1521)" d="m0 0h4l3 7v5l-5-2-3-4v-5z" fill="#A0C768"/>
<path transform="translate(559,1232)" d="m0 0 9 4 4 4v2l-3 1-1-5-1 3-6-1-3-5z" fill="#19B4EC"/>
<path transform="translate(1334,17)" d="m0 0h6l2 1v2l2 1-3 3-7-1-3-2 1-3z" fill="#21B6EC"/>
<path transform="translate(1762,1011)" d="m0 0 1 3 1 4-4 6h-2l-2 4-5 7v-3l8-14z" fill="#FEB060"/>
<path transform="translate(1573,85)" d="m0 0 3 3 1 4-3 6-3-3-1-4 2-5z" fill="#1FB6EC"/>
<path transform="translate(483,1218)" d="m0 0h5l2 2-1 5-3 1-4-2v-5z" fill="#17B3EC"/>
<path transform="translate(1839,1750)" d="m0 0h4l1 4-5 4-4-1 1-5z" fill="#A2C768"/>
<path transform="translate(1960,823)" d="m0 0h4l1 3-4 4h-7l2-4z" fill="#FEB060"/>
<path transform="translate(444,1205)" d="m0 0 8 1 3 5-1 2-4-1-6-4z" fill="#2EBBED"/>
<path transform="translate(610,1815)" d="m0 0 5 1 5 4v3l-5-1-5-4z" fill="#A0C768"/>
<path transform="translate(501,1794)" d="m0 0h7l2 2v4l-4 1-5-5z" fill="#A0C768"/>
<path transform="translate(1290,56)" d="m0 0 2 1-3 3 5 3v1l-10-1-2-1v-2z" fill="#31BCED"/>
<path transform="translate(1390,26)" d="m0 0 5 1v4l-3 2h-4l1-6z" fill="#18B3EC"/>
<path transform="translate(795,420)" d="m0 0 5 1-1 5-4 2-2-1-1-5z" fill="#23B7ED"/>
<path transform="translate(290,1460)" d="m0 0 4 2 2 3v3h-5l-2-4z" fill="#ABC467"/>
<path transform="translate(322,1553)" d="m0 0 3 1 1 4-5 1-5-3 1-2z" fill="#A7C567"/>
<path transform="translate(374,1185)" d="m0 0 7 1 3 2-1 2-6 1-3-2z" fill="#35BDEE"/>
<path transform="translate(1767,952)" d="m0 0 6 1-4 4h-7l1-3z" fill="#FEB060"/>
<path transform="translate(806,1972)" d="m0 0 5 2 2 5-5-1-4-2z" fill="#9AC969"/>
<path transform="translate(548,1834)" d="m0 0 4 2 3 4v2l-6-1-2-3z" fill="#9AC969"/>
<path transform="translate(244,1392)" d="m0 0 4 2 5 6v2l-5-2-4-6z" fill="#A2C668"/>
<path transform="translate(1534,79)" d="m0 0 9 1 1 4-7-1-4-3z" fill="#32BCEE"/>
<path transform="translate(464,1715)" d="m0 0h3l-2 5-4 3h-3l2-4h2z" fill="#A9C567"/>
<path transform="translate(104,1056)" d="m0 0h5l-2 7-2-3-4 1v-4z" fill="#B8E8F6"/>
<path transform="translate(1487,411)" d="m0 0 4 1 2 5h-5l-2-2z" fill="#29B9ED"/>
<path transform="translate(391,1675)" d="m0 0 5 1 3 4-2 1-5-2z" fill="#A1C768"/>
<path transform="translate(1566,67)" d="m0 0 5 1 1 3-1 2-4-1z" fill="#1BB4EC"/>
<path transform="translate(1628,323)" d="m0 0 3 1-1 6-4-2z" fill="#1BB4EC"/>
<path transform="translate(1665,164)" d="m0 0 10 1v2h-9l-2-2z" fill="#6BCEF1"/>
<path transform="translate(1822,920)" d="m0 0h2l-1 4-3 2h-3l2-4z" fill="#FEB060"/>
<path transform="translate(363,1674)" d="m0 0 4 2-2 5h-3z" fill="#A2C668"/>
<path transform="translate(1265,1461)" d="m0 0h2l1 6-5-1 1-4z" fill="#FEB060"/>
<path transform="translate(277,1153)" d="m0 0h10l1 3-8-1z" fill="#27B8ED"/>
<path transform="translate(643,1883)" d="m0 0 2 1-4 8-3-3z" fill="#ADC467"/>
<path transform="translate(602,1869)" d="m0 0 5 1 2 4-5-1z" fill="#9EC768"/>
<path transform="translate(1650,1078)" d="m0 0h2l1 3-6 5 2-7z" fill="#FEB060"/>
<path transform="translate(264,1268)" d="m0 0 3 2-1 5-3-1z" fill="#FEB060"/>
<path transform="translate(924,1233)" d="m0 0 4 1 2 2v3l-4-2z" fill="#29B9ED"/>
<path transform="translate(242,1157)" d="m0 0h7v4l-7-3z" fill="#13B2EC"/>
<path transform="translate(305,1550)" d="m0 0 4 2 6 1v1l-7 1-3-3z" fill="#BEBF65"/>
<path transform="translate(1242,1459)" d="m0 0 3 1v3l-4 1-1-4z" fill="#FEB060"/>
<path transform="translate(34,957)" d="m0 0 3 1 1 4h-3l-2-4z" fill="#44C2EF"/>
<path transform="translate(1949,838)" d="m0 0 4 1-2 3-5-1z" fill="#FEB060"/>
<path transform="translate(1456,57)" d="m0 0h4l-2 6-2-1z" fill="#13B2EC"/>
<path transform="translate(512,1189)" d="m0 0 2 1-5 4-2-1 1-3z" fill="#2DBAED"/>
<path transform="translate(333,1173)" d="m0 0 5 1 4 3-7-1-2-1z" fill="#2DBAED"/>
<path transform="translate(1346,1451)" d="m0 0 2 2v3l-4-1z" fill="#FEB060"/>
<path transform="translate(370,1198)" d="m0 0 3 1-2 3-4-1z" fill="#FEB060"/>
<path transform="translate(441,1216)" d="m0 0h5v3l-5-1z" fill="#13B2EC"/>
<path transform="translate(401,1191)" d="m0 0 5 1-1 2-5-1z" fill="#24B7ED"/>
<path transform="translate(1353,24)" d="m0 0 2 1v2h-6l1-2z" fill="#4AC4EF"/>
<path transform="translate(1275,3)" d="m0 0 2 2-3 3h-2l2-4z" fill="#37BEEE"/>
<path transform="translate(1771 1e3)" d="m0 0 1 2-5 3-2-1z" fill="#FEB060"/>
<path transform="translate(1851,929)" d="m0 0h2v4h-3z" fill="#FEB060"/>
<path transform="translate(1906,840)" d="m0 0h3l-1 3h-3z" fill="#FEB060"/>
<path transform="translate(767,435)" d="m0 0h5v2h-5z" fill="#13B2EC"/>
<path transform="translate(1765,1015)" d="m0 0h5l-1 2h-5z" fill="#FEB060"/>
<path transform="translate(2e3 786)" d="m0 0 3 1v2h-3z" fill="#FEB060"/>
<path transform="translate(781,434)" d="m0 0 2 1-2 2-3-1z" fill="#13B2EC"/>
<path transform="translate(352,1621)" d="m0 0 3 1v2l-3-1z" fill="#B6C166"/>
<path transform="translate(24,958)" d="m0 0h3v2l-4-1z" fill="#71D0F2"/>
<path transform="translate(1690,160)" d="m0 0 5 1-4 1z" fill="#D0EFF8"/>
<path transform="translate(1573,100)" d="m0 0 1 4h-2z" fill="#13B2EC"/>
<path transform="translate(557,1788)" d="m0 0 4 2h-3z" fill="#CCBC64"/>
<path transform="translate(1819,1763)" d="m0 0 1 4h-2z" fill="#9AC969"/>
<path transform="translate(600,1201)" d="m0 0h4v2z" fill="#13B2EC"/>
<path transform="translate(862,1197)" d="m0 0 2 1-4 2z" fill="#81D6F3"/>
<path transform="translate(387,1189)" d="m0 0h3v2h-3z" fill="#37BEEE"/>
<path transform="translate(1592,1094)" d="m0 0h2v3h-2z" fill="#FEB060"/>
<path transform="translate(123,1052)" d="m0 0v3h-2v-2z" fill="#F0FAFA"/>
<path transform="translate(1812,934)" d="m0 0h2v3h-2z" fill="#FEB060"/>
<path transform="translate(774,439)" d="m0 0 2 1-4 2z" fill="#13B2EC"/>
<path transform="translate(1584,415)" d="m0 0 3 1v2l-3-1z" fill="#81D6F3"/>
<path transform="translate(554,1786)" d="m0 0 3 1-3 1z" fill="#C2BF65"/>
<path transform="translate(375,1626)" d="m0 0 3 1-2 2z" fill="#EAB561"/>
<path transform="translate(1129,1231)" d="m0 0 3 1-3 1z" fill="#FEB060"/>
<path transform="translate(1524,1100)" d="m0 0 1 3h-2z" fill="#FEB060"/>
<path transform="translate(779,428)" d="m0 0 3 1-3 1z" fill="#6BCEF1"/>
<path transform="translate(1589,419)" d="m0 0 3 1-3 1z" fill="#F0FAFA"/>
<path transform="translate(1464,55)" d="m0 0h2l-1 3z" fill="#3FC0EE"/>
<path transform="translate(799,1963)" d="m0 0 3 1h-3z" fill="#9AC969"/>
<path transform="translate(637,1870)" d="m0 0 2 1-1 2z" fill="#9AC969"/>
<path transform="translate(504,1763)" d="m0 0 2 1-1 2z" fill="#CCBC64"/>
<path transform="translate(848,1189)" d="m0 0h2v2h-2z" fill="#13B2EC"/>
<path transform="translate(1916,860)" d="m0 0 2 1h-3z" fill="#FEB060"/>
<path transform="translate(770,442)" d="m0 0 2 1h-3z" fill="#13B2EC"/>
<path transform="translate(1592,120)" d="m0 0 3 1h-3z" fill="#B8E8F6"/>
<path transform="translate(1329,15)" d="m0 0 2 2-2 1z" fill="#81D6F3"/>
<path transform="translate(761,1901)" d="m0 0 1 2-2-1z" fill="#BBC066"/>
<path transform="translate(347,1622)" d="m0 0h2l-1 2z" fill="#BBC066"/>
<path transform="translate(1278,1460)" d="m0 0 1 2-2-1z" fill="#FEB060"/>
<path transform="translate(412,1238)" d="m0 0 3 1z" fill="#FEB060"/>
<path transform="translate(393,1192)" d="m0 0 3 1z" fill="#5CCAF0"/>
<path transform="translate(562,1188)" d="m0 0 3 1z" fill="#F0FAFA"/>
<path transform="translate(1512,408)" d="m0 0h2l-1 2z" fill="#A6E2F5"/>
<path transform="translate(1415,35)" d="m0 0 1 2-2-1z" fill="#5CCAF0"/>
<path transform="translate(597,1815)" d="m0 0 2 1z" fill="#FEB060"/>
<path transform="translate(595,1814)" d="m0 0 2 1z" fill="#9AC969"/>
<path transform="translate(374,1641)" d="m0 0 2 1z" fill="#FEB060"/>
<path transform="translate(821,1243)" d="m0 0 2 1z" fill="#13B2EC"/>
<path transform="translate(936,1234)" d="m0 0" fill="#F0FAFA"/>
<path transform="translate(429,1208)" d="m0 0 2 1z" fill="#13B2EC"/>
<path transform="translate(28,957)" d="m0 0" fill="#F0FAFA"/>
<path transform="translate(783,433)" d="m0 0 2 1z" fill="#13B2EC"/>
<path transform="translate(1587,418)" d="m0 0 2 1z" fill="#F0FAFA"/>
<path transform="translate(1297,65)" d="m0 0 2 1z" fill="#13B2EC"/>
<path transform="translate(1218,2047)" d="m0 0" fill="#9AC969"/>
<path transform="translate(993,2021)" d="m0 0" fill="#FEB060"/>
<path transform="translate(802,1965)" d="m0 0" fill="#9AC969"/>
<path transform="translate(798,1962)" d="m0 0" fill="#FEB060"/>
<path transform="translate(1589,1925)" d="m0 0" fill="#9AC969"/>
<path transform="translate(793,1913)" d="m0 0" fill="#FEB060"/>
<path transform="translate(794,1912)" d="m0 0" fill="#9AC969"/>
<path transform="translate(1820,1758)" d="m0 0" fill="#FEB060"/>
<path transform="translate(1247,1460)" d="m0 0" fill="#FEB060"/>
<path transform="translate(980,1436)" d="m0 0" fill="#FEB060"/>
<path transform="translate(910,1243)" d="m0 0" fill="#F0FAFA"/>
<path transform="translate(411,1227)" d="m0 0" fill="#FEB060"/>
<path transform="translate(598,1201)" d="m0 0" fill="#F0FAFA"/>
<path transform="translate(367,1196)" d="m0 0" fill="#FEB060"/>
<path transform="translate(792,1195)" d="m0 0" fill="#13B2EC"/>
<path transform="translate(323,1192)" d="m0 0" fill="#F0FAFA"/>
<path transform="translate(373,1184)" d="m0 0" fill="#13B2EC"/>
<path transform="translate(342,1177)" d="m0 0" fill="#13B2EC"/>
<path transform="translate(1179,1144)" d="m0 0" fill="#F0FAFA"/>
<path transform="translate(1749,1035)" d="m0 0" fill="#FEB060"/>
<path transform="translate(1763,1010)" d="m0 0" fill="#FEB060"/>
<path transform="translate(1764,1009)" d="m0 0" fill="#FEB060"/>
<path transform="translate(1770,995)" d="m0 0" fill="#FEB060"/>
<path transform="translate(1886,885)" d="m0 0" fill="#FEB060"/>
<path transform="translate(1887,883)" d="m0 0" fill="#FEB060"/>
<path transform="translate(977,827)" d="m0 0" fill="#F0FAFA"/>
<path transform="translate(2023,796)" d="m0 0" fill="#FEB060"/>
<path transform="translate(2024,795)" d="m0 0" fill="#FEB060"/>
<path transform="translate(2e3 776)" d="m0 0" fill="#FEB060"/>
<path transform="translate(2027,709)" d="m0 0" fill="#F0FAFA"/>
<path transform="translate(768,444)" d="m0 0" fill="#13B2EC"/>
<path transform="translate(776,438)" d="m0 0" fill="#13B2EC"/>
<path transform="translate(781,426)" d="m0 0" fill="#F0FAFA"/>
<path transform="translate(1271,8)" d="m0 0" fill="#F0FAFA"/>
</svg>
